<svg xmlns="http://www.w3.org/2000/svg" width="156" height="60" viewBox="0 0 156 60" fill="none"><g clip-path="url(#clip0_382_3336)"><path d="M110.206 20.6327C109.424 20.6327 108.638 20.3618 108 19.8091L102.281 14.8518C100.876 13.6327 100.724 11.5055 101.943 10.0991C103.163 8.69363 105.287 8.54 106.696 9.76L112.415 14.7173C113.82 15.9364 113.973 18.0645 112.754 19.47C112.086 20.2382 111.149 20.6327 110.206 20.6327Z" fill="#652DBF"></path><path d="M121.156 15.4509C119.407 15.4509 117.929 14.0991 117.8 12.3273L117.249 4.77546C117.115 2.91909 118.509 1.30546 120.365 1.17C122.213 1.03091 123.835 2.42909 123.971 4.28546L124.522 11.8364C124.657 13.6927 123.262 15.3064 121.406 15.4418C121.322 15.4482 121.238 15.4509 121.156 15.4509Z" fill="#652DBF"></path><path d="M0.570312 36.3336V12.0173L8.38304 8.07001V19.09H15.1549V26.1082H8.38304V36.3336C8.38304 37.2109 8.5894 37.95 9.00031 38.5527C9.41213 39.1564 9.92758 39.5682 10.5494 39.7864C11.043 39.97 11.5639 40.0618 12.1121 40.0618C12.2376 40.0618 12.3758 40.0527 12.523 40.0346C13.2167 39.9782 13.8558 39.7873 14.443 39.4573L17.1294 45.4618C15.8494 47.0336 13.7739 47.8191 10.9058 47.8191C9.53576 47.7818 8.24213 47.5173 7.02577 47.0246C5.8094 46.5309 4.71213 45.8173 3.73668 44.8855C2.75758 43.9536 1.98486 42.7518 1.42031 41.28C0.85213 39.81 0.570312 38.1609 0.570312 36.3336Z" fill="#010E21"></path><path d="M19.9258 39.6218C19.9258 38.1973 20.1394 36.9218 20.5694 35.7982C20.9967 34.6746 21.5149 33.7618 22.1176 33.0564C22.7212 32.3555 23.5467 31.7464 24.5994 31.2337C25.6494 30.7228 26.5858 30.3491 27.4094 30.1109C28.2312 29.8728 29.304 29.6909 30.6303 29.5618C31.9549 29.4346 32.9631 29.3618 33.6603 29.3428C34.3531 29.3246 35.3131 29.3155 36.5385 29.3155C36.6094 29.3155 36.6621 29.3155 36.6894 29.3155C36.7167 29.3155 36.7585 29.3155 36.8131 29.3155C36.8676 29.3155 36.9112 29.3155 36.9503 29.3155C36.6567 26.2091 34.9376 24.6546 31.7958 24.6546C30.7549 24.6546 29.7685 24.88 28.8358 25.3264C27.9031 25.7746 27.1803 26.4282 26.6694 27.2864L21.4603 24.6546C21.8994 23.5037 22.684 22.4673 23.8185 21.5437C24.9512 20.6209 26.2749 19.9046 27.794 19.3918C29.3103 18.8809 30.864 18.6246 32.4549 18.6246C34.0067 18.6246 35.4976 18.8673 36.9231 19.3509C38.3485 19.8364 39.6531 20.5673 40.844 21.5437C42.0312 22.5228 42.9831 23.8473 43.6949 25.5191C44.4076 27.1918 44.764 29.1064 44.764 31.2618V47.38H38.5685L38.1303 44.9137C34.8567 46.8518 31.8612 47.8191 29.1385 47.8191C26.4676 47.8191 24.2658 47.0564 22.5312 45.53C20.7921 44.0046 19.9258 42.0346 19.9258 39.6218ZM27.7385 38.3891C27.7385 39.6155 28.1494 40.5773 28.9721 41.2818C29.7949 41.9864 30.8249 42.3373 32.0703 42.3373C33.4212 42.3373 34.5912 41.94 35.5785 41.1446C36.5658 40.3491 37.0594 39.2118 37.0594 37.7318L37.004 34.0309H35.3867C34.764 34.0309 34.2249 34.0446 33.7685 34.0718C33.3112 34.0991 32.7549 34.1528 32.0967 34.2364C31.4394 34.3191 30.8803 34.4546 30.4249 34.6473C29.9676 34.84 29.5203 35.0909 29.0812 35.4009C28.6421 35.7128 28.3076 36.1191 28.0794 36.6218C27.8503 37.1237 27.7385 37.7128 27.7385 38.3891Z" fill="#010E21"></path><path d="M49.2305 58.84V19.09H57.045V21.6673C59.4196 19.6391 62.1723 18.6246 65.2968 18.6246C67.5059 18.6246 69.4659 19.3237 71.1768 20.7209C72.8841 22.1173 74.1659 23.9064 75.015 26.0882C75.8641 28.2709 76.2887 30.6118 76.2887 33.1128C76.2887 34.6482 76.1659 36.1137 75.9187 37.5018C75.6705 38.8937 75.2605 40.2237 74.6859 41.4964C74.1105 42.7664 73.3959 43.8646 72.5468 44.7891C71.6968 45.7146 70.6214 46.4491 69.325 46.9991C68.0259 47.5482 66.5832 47.8209 64.9941 47.8209C61.885 47.8209 59.2368 46.8137 57.0441 44.7937V58.8409L49.2305 58.84ZM57.8532 27.1728C56.7459 28.6691 56.195 30.6491 56.195 33.1118C56.195 35.5746 56.7459 37.5564 57.8532 39.0509C58.9577 40.5473 60.4059 41.2964 62.1987 41.2964C64.0796 41.2964 65.5977 40.5482 66.7496 39.0509C67.9023 37.5555 68.4777 35.5746 68.4777 33.1118C68.4777 30.65 67.9023 28.67 66.7496 27.1728C65.5977 25.6773 64.0796 24.9291 62.1987 24.9291C60.405 24.9291 58.9577 25.6773 57.8532 27.1728Z" fill="#010E21"></path><path d="M79.0859 33.1255C79.0859 31.7746 79.2678 30.4227 79.635 29.0691C79.9996 27.7173 80.5696 26.4155 81.3478 25.1627C82.1241 23.9118 83.0478 22.8009 84.1178 21.8309C85.1868 20.8637 86.4914 20.0864 88.0387 19.5009C89.5814 18.9173 91.2396 18.6237 93.015 18.6237C94.5659 18.6237 95.9914 18.7973 97.2896 19.1446C98.5887 19.4927 99.6832 19.9637 100.58 20.5564C101.474 21.1518 102.28 21.85 102.993 22.6537C103.706 23.4582 104.268 24.2991 104.679 25.1755C105.089 26.0518 105.435 26.9582 105.72 27.89C106.002 28.8218 106.2 29.7091 106.31 30.5482C106.401 31.3891 106.455 32.1918 106.474 32.9609C106.474 33.1437 106.474 33.3264 106.474 33.5091C106.474 34.0209 106.455 34.4773 106.419 34.8791C106.364 35.3918 106.29 35.7946 106.2 36.0855H86.9005C87.2105 37.53 87.9696 38.6773 89.1759 39.5264C90.3823 40.3755 91.8623 40.8009 93.6168 40.8009C94.7496 40.8009 95.8123 40.5818 96.8105 40.1428C97.8068 39.7037 98.5614 39.12 99.0732 38.3873L105.131 41.87C103.796 43.6609 102.014 45.0991 99.7859 46.1873C97.5541 47.2755 95.2978 47.8182 93.015 47.8182C90.7832 47.8182 88.7668 47.4027 86.9705 46.5709C85.1696 45.7409 83.7078 44.63 82.5832 43.2409C81.4596 41.8527 80.595 40.2891 79.9914 38.5518C79.3878 36.8173 79.0859 35.0091 79.0859 33.1255ZM86.7896 30.3027H99.1814C98.8323 28.64 98.115 27.3291 97.0296 26.3691C95.9414 25.41 94.6041 24.93 93.0141 24.93C91.2941 24.93 89.8768 25.42 88.7641 26.3964C87.6478 27.3746 86.9896 28.6764 86.7896 30.3027Z" fill="#010E21"></path><path d="M109.27 33.2491C109.27 28.8591 110.534 25.3246 113.067 22.6437C115.598 19.9637 118.936 18.6237 123.087 18.6237C125.335 18.6237 127.472 19.0891 129.502 20.0218C131.531 20.9537 133.093 22.1973 134.19 23.7509L128.022 27.1809C127.509 26.54 126.829 26.0237 125.98 25.6291C125.129 25.2355 124.238 25.0382 123.306 25.0382C121.424 25.0382 119.916 25.7855 118.781 27.2773C117.648 28.77 117.083 30.7418 117.083 33.1927C117.083 35.6109 117.653 37.5646 118.797 39.0564C119.937 40.5482 121.441 41.2955 123.306 41.2955C124.238 41.2955 125.13 41.0982 125.98 40.7046C126.83 40.3109 127.509 39.7946 128.022 39.1537L134.19 42.5773C133.038 44.1437 131.447 45.4091 129.42 46.3737C127.391 47.3391 125.28 47.82 123.087 47.82C118.936 47.82 115.598 46.4827 113.067 43.8082C110.534 41.1337 109.27 37.6137 109.27 33.2491Z" fill="#010E21"></path><path d="M139.234 36.3336V12.0173L147.049 8.07001V19.09H153.819V26.1082H147.049V36.3336C147.049 37.2109 147.254 37.95 147.666 38.5527C148.075 39.1564 148.592 39.5682 149.214 39.7864C149.707 39.97 150.228 40.0618 150.777 40.0618C150.903 40.0618 151.04 40.0527 151.188 40.0346C151.882 39.9782 152.521 39.7873 153.106 39.4573L155.793 45.4618C154.513 47.0336 152.439 47.8191 149.57 47.8191C148.199 47.7818 146.905 47.5173 145.691 47.0246C144.473 46.5309 143.376 45.8173 142.401 44.8855C141.422 43.9536 140.648 42.7518 140.084 41.28C139.518 39.81 139.234 38.1609 139.234 36.3336Z" fill="#010E21"></path></g><defs><clipPath id="clip0_382_3336"><rect width="156" height="60" fill="white"></rect></clipPath></defs></svg>